<svg width="50" height="50" viewBox="0 0 50 50" fill="none" xmlns="http://www.w3.org/2000/svg">
<path d="M24.925 17.1261C20.6119 17.1261 17.1329 20.6051 17.1329 24.9183C17.1329 29.2314 20.6119 32.7104 24.925 32.7104C29.2382 32.7104 32.7172 29.2314 32.7172 24.9183C32.7172 20.6051 29.2382 17.1261 24.925 17.1261ZM24.925 29.9842C22.1377 29.9842 19.8591 27.7123 19.8591 24.9183C19.8591 22.1242 22.131 19.8524 24.925 19.8524C27.7191 19.8524 29.9909 22.1242 29.9909 24.9183C29.9909 27.7123 27.7123 29.9842 24.925 29.9842ZM34.8534 16.8074C34.8534 17.8179 34.0396 18.6249 33.0359 18.6249C32.0254 18.6249 31.2184 17.8111 31.2184 16.8074C31.2184 15.8037 32.0322 14.9899 33.0359 14.9899C34.0396 14.9899 34.8534 15.8037 34.8534 16.8074ZM40.0143 18.652C39.899 16.2174 39.3429 14.0608 37.5593 12.284C35.7825 10.5072 33.6259 9.95111 31.1913 9.82904C28.6821 9.68663 21.1612 9.68663 18.652 9.82904C16.2241 9.94433 14.0675 10.5004 12.2839 12.2772C10.5004 14.054 9.95105 16.2106 9.82898 18.6452C9.68656 21.1545 9.68656 28.6753 9.82898 31.1846C9.94427 33.6192 10.5004 35.7758 12.2839 37.5526C14.0675 39.3294 16.2173 39.8855 18.652 40.0075C21.1612 40.1499 28.6821 40.1499 31.1913 40.0075C33.6259 39.8922 35.7825 39.3361 37.5593 37.5526C39.3361 35.7758 39.8922 33.6192 40.0143 31.1846C40.1567 28.6753 40.1567 21.1612 40.0143 18.652ZM36.7726 33.8769C36.2436 35.2061 35.2196 36.2301 33.8836 36.7659C31.883 37.5593 27.1358 37.3762 24.925 37.3762C22.7142 37.3762 17.9602 37.5526 15.9664 36.7659C14.6372 36.2369 13.6132 35.2129 13.0774 33.8769C12.2839 31.8763 12.4671 27.1291 12.4671 24.9183C12.4671 22.7075 12.2907 17.9535 13.0774 15.9597C13.6064 14.6305 14.6304 13.6064 15.9664 13.0707C17.967 12.2772 22.7142 12.4603 24.925 12.4603C27.1358 12.4603 31.8898 12.284 33.8836 13.0707C35.2128 13.5997 36.2369 14.6237 36.7726 15.9597C37.5661 17.9603 37.383 22.7075 37.383 24.9183C37.383 27.1291 37.5661 31.8831 36.7726 33.8769Z" fill="white"/>
<circle cx="25" cy="25" r="24.5" stroke="white"/>
</svg>
