<svg width="56" height="50" viewBox="0 0 56 50" fill="none" xmlns="http://www.w3.org/2000/svg">
<rect width="55.0725" height="50" rx="7.97101" fill="white"/>
<path d="M38.7437 40.8375H17.2562L18 27.4438C18.1358 24.9765 19.2118 22.655 21.0067 20.9566C22.8016 19.2582 25.1789 18.312 27.65 18.3125H28.7937C31.149 18.3058 33.417 19.2032 35.13 20.8196C36.843 22.4361 37.8703 24.6483 38 27L38.7437 40.8375Z" stroke="#205DC9" stroke-width="3"/>
<path d="M25.1125 18.65L20.325 9.61878C20.2974 9.56745 20.2848 9.50944 20.2885 9.4513C20.2922 9.39316 20.312 9.33721 20.3458 9.28976C20.3796 9.24231 20.426 9.20526 20.4797 9.18278C20.5335 9.1603 20.5924 9.15328 20.65 9.16253L23.5562 9.64378C26.6095 10.1507 29.7246 10.1612 32.7812 9.67503L35.975 9.16878C36.0337 9.15915 36.0941 9.16652 36.1488 9.19002C36.2035 9.21353 36.2504 9.25219 36.2839 9.30145C36.3174 9.35071 36.3361 9.40852 36.3379 9.46806C36.3396 9.5276 36.3243 9.58641 36.2937 9.63753L31.0312 18.4563" stroke="#205DC9" stroke-width="3"/>
<path d="M25.6438 13.2188L27.2063 18.3125" stroke="#205DC9" stroke-width="3" stroke-linecap="round"/>
<path d="M29.9625 14.2438L29.1188 18.3188" stroke="#205DC9" stroke-width="3" stroke-linecap="round"/>
<path d="M31.8375 26.2812C31.5527 25.618 31.0763 25.0549 30.4695 24.664C29.8626 24.2732 29.1529 24.0724 28.4312 24.0875C25.3687 24.0875 25.25 26.2812 25.25 26.2812C25.25 26.2812 24.7937 28.9875 28.5437 29.275C32.45 29.575 31.8375 32.2687 31.8375 32.2687C31.8375 32.2687 31.4375 34.6125 28.5437 34.7687C25.65 34.925 24.75 31.875 24.75 31.875" stroke="#205DC9" stroke-width="3"/>
<path d="M28.4313 22.1438V37.0063" stroke="#205DC9" stroke-width="3"/>
</svg>
