<svg width="50" height="50" viewBox="0 0 50 50" fill="none" xmlns="http://www.w3.org/2000/svg">
<circle cx="25" cy="25" r="24.5" stroke="white"/>
<path fill-rule="evenodd" clip-rule="evenodd" d="M14.4402 27.4452C14.504 27.4668 14.5685 27.482 14.6328 27.4913C14.703 27.6564 14.7937 27.8698 14.8995 28.1193C15.1578 28.7283 15.5057 29.5521 15.8649 30.4113C16.5973 32.1638 17.3361 33.9703 17.4993 34.4874C17.7013 35.1266 17.9148 35.5612 18.1479 35.8579C18.2684 36.0113 18.4078 36.1452 18.5709 36.2467C18.653 36.2978 18.7398 36.3396 18.8303 36.3708C18.8343 36.3723 18.8383 36.3736 18.8422 36.3749C19.3089 36.5511 19.7344 36.4777 20.0008 36.388C20.1433 36.3399 20.2587 36.282 20.3404 36.2351C20.3821 36.211 20.4173 36.1887 20.4454 36.1697L20.452 36.1653L24.5736 33.595L29.3343 37.245C29.4046 37.2988 29.4812 37.344 29.5624 37.3794C30.1343 37.6289 30.6881 37.716 31.2091 37.6448C31.7292 37.5738 32.1422 37.3554 32.4496 37.1093C32.7506 36.8686 32.9546 36.5988 33.0818 36.3984C33.1467 36.296 33.1954 36.2055 33.2297 36.1362C33.247 36.1013 33.2609 36.0713 33.2715 36.0472L33.2854 36.0154L33.2905 36.0029L33.2927 35.9976L33.2937 35.9952L33.2945 35.9928C33.3196 35.9303 33.3387 35.8655 33.3519 35.7995L37.6981 13.8873C37.712 13.8173 37.719 13.746 37.719 13.6745C37.719 13.0328 37.4772 12.4227 36.9087 12.0524C36.4228 11.736 35.8815 11.7223 35.5394 11.7483C35.1704 11.7763 34.8296 11.8674 34.6008 11.9402C34.4818 11.9781 34.382 12.0146 34.3101 12.0425C34.274 12.0565 34.2442 12.0686 34.2222 12.0777L34.2056 12.0847L9.83144 21.6463L9.82829 21.6475C9.81276 21.6532 9.79281 21.6606 9.76911 21.6698C9.72192 21.6882 9.65867 21.714 9.58481 21.7475C9.44075 21.8129 9.23866 21.9148 9.03127 22.0568C8.69995 22.2838 7.93798 22.9052 8.06629 23.9308C8.16865 24.7491 8.7292 25.2516 9.07073 25.4933C9.25826 25.626 9.43642 25.7208 9.56617 25.7826C9.62635 25.8112 9.75133 25.8619 9.80555 25.8841L9.81925 25.8896L14.4402 27.4452ZM35.0587 14.099L35.0552 14.1004C35.0431 14.1057 35.0308 14.1108 35.0186 14.1156L10.6148 23.6889C10.602 23.6938 10.5892 23.6986 10.5763 23.7032L10.5627 23.7083C10.5471 23.7144 10.5208 23.725 10.4878 23.7399C10.4691 23.7484 10.4496 23.7577 10.4297 23.7676C10.457 23.7831 10.4832 23.7963 10.5065 23.8074C10.5288 23.8181 10.5458 23.8254 10.5551 23.8292L15.1381 25.3721C15.222 25.4004 15.3002 25.4377 15.372 25.4829L30.5048 16.6242L30.5189 16.6159C30.53 16.6093 30.5444 16.601 30.5618 16.5912C30.5962 16.5717 30.6436 16.5458 30.6999 16.5171C30.8049 16.4637 30.9729 16.3843 31.1622 16.3258C31.294 16.2851 31.6826 16.1703 32.1028 16.3051C32.3621 16.3883 32.6306 16.5671 32.8051 16.87C32.8919 17.0205 32.9381 17.1716 32.9604 17.31C33.0199 17.528 33.0106 17.7433 32.9641 17.9291C32.8638 18.3294 32.5824 18.6417 32.3265 18.8805C32.1073 19.0853 29.2703 21.8209 26.4716 24.5214C25.0758 25.8681 23.6943 27.2016 22.6618 28.1982L21.9836 28.853L30.5469 35.4181C30.7432 35.4884 30.8593 35.4849 30.9131 35.4775C30.9771 35.4687 31.0295 35.4441 31.083 35.4013C31.1428 35.3535 31.1951 35.2887 31.2342 35.2271L31.2358 35.2246L35.4511 13.9723C35.3886 13.9874 35.3253 14.0053 35.2643 14.0247C35.1952 14.0466 35.1383 14.0676 35.1005 14.0822C35.0819 14.0894 35.0685 14.0949 35.0612 14.098L35.0587 14.099ZM22.7193 32.1735L21.0109 30.8636L20.5968 33.4969L22.7193 32.1735ZM19.4436 28.2645L21.1425 26.6243C22.1752 25.6276 23.5568 24.2941 24.9526 22.9472L26.3708 21.579L16.8625 27.1451L16.9135 27.2654C17.1726 27.8766 17.5221 28.7039 17.8832 29.5678C18.1532 30.2137 18.4355 30.8939 18.6926 31.5236L19.1054 28.898C19.1452 28.6449 19.2689 28.4258 19.4436 28.2645Z" fill="white"/>
</svg>
